<svg xmlns="http://www.w3.org/2000/svg" width="595.28" height="841.89" viewBox="0 0 595.28 841.89">
  <path d="M302 481.89h-47c.148-5.818.185-11.642.465-17.454.823-17.087 1.325-34.204 2.733-51.244 1.582-19.134 11.585-32.878 29.048-40.92 1.928-.888 5.078-1.185 6.704-.19 2.57 1.57 5.037 4.134 6.32 6.856 9.483 20.116 16.91 40.8 16.603 63.534-.178 13.136.07 26.278.127 39.418h-11c-.638-8.256-1.31-16.51-1.9-24.768-.33-4.598-1.902-9.684-.505-13.713 3.38-9.74 1.804-19.107-.075-28.55-.66-3.32-2.7-6.366-4.11-9.537-.552.104-1.103.21-1.654.315-.564 2.5-1.643 5.01-1.6 7.498.147 8.263.875 16.515 1.05 24.777.27 12.804.247 25.613.42 38.42.014.988.593 1.97.91 2.952 1.06-.448 2.115-.897 3.246-1.377l.218 3.982z"/>
  <path fill-rule="evenodd" clip-rule="evenodd" fill="#FFF" d="M317 481.89c-.057-13.14-.305-26.282-.127-39.418.31-22.735-7.12-43.418-16.604-63.534-1.283-2.723-3.75-5.285-6.32-6.856-1.626-.994-4.776-.697-6.704.19-17.463 8.042-27.466 21.786-29.048 40.92-1.41 17.04-1.91 34.157-2.733 51.244-.28 5.812-.317 11.636-.465 17.454h-8.99c-.003-39.937-.003-79.874-.003-119.905h80.84V481.89H317z"/>
  <path fill-rule="evenodd" clip-rule="evenodd" fill="#FFF" d="M302 481.89c-.072-1.325-.146-2.65-.22-3.98-1.13.48-2.187.93-3.245 1.377-.316-.983-.896-1.964-.91-2.952-.173-12.807-.15-25.616-.42-38.42-.175-8.263-.903-16.515-1.05-24.777-.043-2.49 1.036-4.998 1.6-7.498l1.653-.315c1.41 3.17 3.45 6.216 4.11 9.536 1.88 9.444 3.456 18.81.076 28.55-1.397 4.03.176 9.116.505 13.714.59 8.26 1.262 16.512 1.9 24.768-1.334-.002-2.666-.002-4-.002z"/>
</svg>
